<svg viewBox="0 0 17 17" fill="none" xmlns="http://www.w3.org/2000/svg">
	<path d="M15.91 8.42331C15.91 7.89664 15.8633 7.39664 15.7833 6.90997H8.25V9.91664H12.5633C12.37 10.9033 11.8033 11.7366 10.9633 12.3033V14.3033H13.5367C15.0433 12.91 15.91 10.8566 15.91 8.42331Z" fill="#005AE0"/>
	<path d="M8.24986 16.2433C10.4099 16.2433 12.2165 15.5233 13.5365 14.3033L10.9632 12.3033C10.2432 12.7833 9.32986 13.0766 8.24986 13.0766C6.1632 13.0766 4.39653 11.67 3.7632 9.76996H1.10986V11.83C2.4232 14.4433 5.1232 16.2433 8.24986 16.2433Z" fill="#00AA63"/>
	<path d="M3.76333 9.76995C3.59667 9.28995 3.51 8.77661 3.51 8.24328C3.51 7.70995 3.60333 7.19662 3.76333 6.71662V4.65662H1.11C0.563333 5.73662 0.25 6.94995 0.25 8.24328C0.25 9.53661 0.563333 10.7499 1.11 11.8299L3.76333 9.76995Z" fill="#FBBC05"/>
	<path d="M8.24986 3.40995C9.42986 3.40995 10.4832 3.81662 11.3165 4.60995L13.5965 2.32995C12.2165 1.03662 10.4099 0.243286 8.24986 0.243286C5.1232 0.243286 2.4232 2.04329 1.10986 4.65662L3.7632 6.71662C4.39653 4.81662 6.1632 3.40995 8.24986 3.40995Z" fill="#EA4335"/>
</svg>