<svg viewBox="0 0 16 17" fill="none" xmlns="http://www.w3.org/2000/svg">
	<path d="M14.3114 4.79243C14.8728 5.81684 15.1923 6.99246 15.1923 8.24299C15.1923 10.8965 13.7543 13.2132 11.6159 14.4599L13.8127 8.10822C14.2231 7.08211 14.3597 6.26162 14.3597 5.53206C14.3597 5.26726 14.3423 5.0215 14.3114 4.79243ZM8.9911 4.87073C9.42412 4.84796 9.81429 4.80241 9.81429 4.80241C10.2018 4.75653 10.1561 4.18697 9.76841 4.20966C9.76841 4.20966 8.60338 4.30108 7.8513 4.30108C7.1446 4.30108 5.95705 4.20966 5.95705 4.20966C5.56915 4.18697 5.52369 4.77947 5.91142 4.80241C5.91142 4.80241 6.27831 4.84796 6.66587 4.87073L7.78637 7.94111L6.21211 12.6618L3.59304 4.87073C4.02639 4.84796 4.41615 4.80241 4.41615 4.80241C4.80344 4.75653 4.75773 4.18697 4.37018 4.20966C4.37018 4.20966 3.2054 4.30108 2.45324 4.30108C2.31829 4.30108 2.15923 4.29778 1.99034 4.29237C3.27643 2.33987 5.48695 1.05048 7.99987 1.05048C9.87228 1.05048 11.5772 1.76641 12.8568 2.93889C12.8258 2.93703 12.7956 2.93313 12.7637 2.93313C12.0572 2.93313 11.5558 3.54858 11.5558 4.20966C11.5558 4.80241 11.8978 5.30392 12.2624 5.89659C12.5359 6.37566 12.8554 6.99102 12.8554 7.88024C12.8554 8.49577 12.6186 9.21018 12.3081 10.2054L11.5905 12.6024L8.9911 4.87073ZM7.99987 15.4361C7.29384 15.4361 6.61245 15.3326 5.96788 15.143L8.12618 8.87215L10.3369 14.9292C10.3514 14.9647 10.3693 14.9975 10.3883 15.0283C9.64075 15.2915 8.83745 15.4361 7.99987 15.4361ZM0.807361 8.24299C0.807361 7.2002 1.03102 6.21032 1.43017 5.31585L4.86118 14.7162C2.46162 13.5505 0.807361 11.09 0.807361 8.24299ZM7.99987 0.243286C3.58872 0.243286 0 3.83192 0 8.24299C0 12.6542 3.58872 16.2433 7.99987 16.2433C12.4109 16.2433 15.9998 12.6542 15.9998 8.24299C15.9998 3.83192 12.4109 0.243286 7.99987 0.243286Z" fill="#141B38"/>
</svg>