<svg width="16" height="16" viewBox="0 0 16 16" fill="none" xmlns="http://www.w3.org/2000/svg">
<rect width="16" height="16" fill="#F5F5F5"/>
<g clip-path="url(#clip0_1673_2)">
<rect width="1440" height="1536" transform="translate(-1056 -1233)" fill="white"/>
<g filter="url(#filter0_d_1673_2)">
<rect x="-808" y="-587" width="944" height="857" rx="6" fill="white"/>
<rect x="-327.5" y="-15.5" width="359" height="47" rx="3.5" fill="#0099BD" fill-opacity="0.08"/>
<path d="M13.3538 6.35378L8.35378 11.3538C8.30735 11.4003 8.2522 11.4372 8.1915 11.4623C8.13081 11.4875 8.06574 11.5004 8.00003 11.5004C7.93433 11.5004 7.86926 11.4875 7.80856 11.4623C7.74786 11.4372 7.69272 11.4003 7.64628 11.3538L2.64628 6.35378C2.55246 6.25996 2.49976 6.13272 2.49976 6.00003C2.49976 5.86735 2.55246 5.7401 2.64628 5.64628C2.7401 5.55246 2.86735 5.49976 3.00003 5.49976C3.13272 5.49976 3.25996 5.55246 3.35378 5.64628L8.00003 10.2932L12.6463 5.64628C12.6927 5.59983 12.7479 5.56298 12.8086 5.53784C12.8693 5.5127 12.9343 5.49976 13 5.49976C13.0657 5.49976 13.1308 5.5127 13.1915 5.53784C13.2522 5.56298 13.3073 5.59983 13.3538 5.64628C13.4002 5.69274 13.4371 5.74789 13.4622 5.80859C13.4874 5.86928 13.5003 5.93434 13.5003 6.00003C13.5003 6.06573 13.4874 6.13079 13.4622 6.19148C13.4371 6.25218 13.4002 6.30733 13.3538 6.35378Z" fill="#818181"/>
<rect x="-327.5" y="-15.5" width="359" height="47" rx="3.5" stroke="#D2D2D2"/>
</g>
</g>
<defs>
<filter id="filter0_d_1673_2" x="-818" y="-597" width="964" height="877" filterUnits="userSpaceOnUse" color-interpolation-filters="sRGB">
<feFlood flood-opacity="0" result="BackgroundImageFix"/>
<feColorMatrix in="SourceAlpha" type="matrix" values="0 0 0 0 0 0 0 0 0 0 0 0 0 0 0 0 0 0 127 0" result="hardAlpha"/>
<feMorphology radius="4" operator="dilate" in="SourceAlpha" result="effect1_dropShadow_1673_2"/>
<feOffset/>
<feGaussianBlur stdDeviation="3"/>
<feComposite in2="hardAlpha" operator="out"/>
<feColorMatrix type="matrix" values="0 0 0 0 0.825 0 0 0 0 0.825 0 0 0 0 0.825 0 0 0 0.25 0"/>
<feBlend mode="normal" in2="BackgroundImageFix" result="effect1_dropShadow_1673_2"/>
<feBlend mode="normal" in="SourceGraphic" in2="effect1_dropShadow_1673_2" result="shape"/>
</filter>
<clipPath id="clip0_1673_2">
<rect width="1440" height="1536" fill="white" transform="translate(-1056 -1233)"/>
</clipPath>
</defs>
</svg>
